<svg width="16" height="16" viewBox="0 0 16 16" fill="none" xmlns="http://www.w3.org/2000/svg">
<path d="M1.73223 14.2678L1.73222 14.2677C1.40128 13.9368 1.20776 13.4867 1.10538 12.7252C1.00106 11.9493 1 10.9283 1 9.5V4.21231C1 3.52767 1.00219 3.25464 1.04334 3.0365L0.552292 2.94385L1.04334 3.03649C1.23415 2.02519 2.02519 1.23415 3.03649 1.04334L2.94379 0.552013L3.0365 1.04334C3.25464 1.00219 3.52767 1 4.21231 1C4.51161 1 4.62939 1.00051 4.74011 1.01086L4.74013 1.01086C5.2408 1.05768 5.71572 1.2544 6.10286 1.57532C6.18846 1.64629 6.2721 1.72922 6.48371 1.94085L6.48374 1.94088L6.89645 2.35356C6.91454 2.37165 6.93242 2.38953 6.95009 2.40721C7.5105 2.96778 7.86292 3.32031 8.29096 3.55849L8.29097 3.5585C8.52578 3.68914 8.77489 3.79228 9.03323 3.86593L9.1703 3.38508L9.03323 3.86593C9.50433 4.00022 10.0028 4.00014 10.7954 4.00001C10.8204 4 10.8457 4 10.8713 4H11.1516C12.1518 4 12.8551 4.00093 13.3905 4.06823C13.9133 4.13397 14.2058 4.25599 14.4203 4.44887C14.4662 4.49015 14.5098 4.53378 14.5509 4.57954L14.5511 4.57974C14.744 4.79417 14.866 5.08669 14.9318 5.60954C14.9991 6.14487 15 6.84818 15 7.84843V9.5C15 10.9283 14.9989 11.9493 14.8946 12.7252C14.7922 13.4867 14.5987 13.9368 14.2678 14.2677L14.2677 14.2678C13.9368 14.5987 13.4867 14.7922 12.7252 14.8946C11.9493 14.9989 10.9283 15 9.5 15H6.5C5.07165 15 4.05069 14.9989 3.27481 14.8946C2.51332 14.7922 2.06319 14.5987 1.73223 14.2678ZM9.0625 8C9.0625 7.41321 8.58679 6.9375 8 6.9375C7.41321 6.9375 6.9375 7.41321 6.9375 8V8.4375H6.5C5.9132 8.4375 5.4375 8.91321 5.4375 9.5C5.4375 10.0868 5.9132 10.5625 6.5 10.5625H6.9375V11C6.9375 11.5868 7.41321 12.0625 8 12.0625C8.58679 12.0625 9.0625 11.5868 9.0625 11V10.5625H9.5C10.0868 10.5625 10.5625 10.0868 10.5625 9.5C10.5625 8.91321 10.0868 8.4375 9.5 8.4375H9.0625V8Z" stroke="currentColor"/>
</svg>
