<svg width="36" height="33" viewBox="0 0 36 33" fill="none" xmlns="http://www.w3.org/2000/svg">
<path d="M0.693 20.4729L1.0395 10.4986H11.1623V13.2211H3.9105L3.762 17.6266C4.191 17.1646 4.686 16.8594 5.247 16.7109C5.8245 16.5459 6.4185 16.4634 7.029 16.4634C7.689 16.4634 8.30775 16.5789 8.88525 16.8099C9.47925 17.0409 9.9825 17.3791 10.395 17.8246C10.824 18.2536 11.1623 18.7899 11.4098 19.4334C11.6573 20.0769 11.781 20.8111 11.781 21.6361C11.781 22.5271 11.6408 23.3356 11.3603 24.0616C11.0798 24.7711 10.692 25.3816 10.197 25.8931C9.702 26.4046 9.108 26.8006 8.415 27.0811C7.722 27.3616 6.95475 27.5019 6.11325 27.5019C5.37075 27.5019 4.6695 27.3781 4.0095 27.1306C3.366 26.8996 2.79675 26.5779 2.30175 26.1654C1.80675 25.7364 1.41075 25.2331 1.11375 24.6556C0.83325 24.0616 0.6765 23.4099 0.6435 22.7004H3.861C3.927 23.3934 4.158 23.9296 4.554 24.3091C4.95 24.6886 5.46975 24.8784 6.11325 24.8784C7.00425 24.8784 7.63125 24.5979 7.99425 24.0369C8.37375 23.4759 8.5635 22.7251 8.5635 21.7846C8.5635 20.9266 8.37375 20.2584 7.99425 19.7799C7.63125 19.3014 7.07025 19.0621 6.31125 19.0621C5.73375 19.0621 5.2635 19.1859 4.9005 19.4334C4.5375 19.6644 4.2405 20.0109 4.0095 20.4729H0.693ZM18.1971 24.8536C19.0386 24.8536 19.6408 24.6144 20.0038 24.1359C20.3833 23.6574 20.5731 22.9891 20.5731 22.1311C20.5731 21.3721 20.3833 20.7534 20.0038 20.2749C19.6243 19.7964 19.0221 19.5571 18.1971 19.5571C17.3721 19.5571 16.7781 19.7881 16.4151 20.2501C16.0521 20.7121 15.8706 21.3391 15.8706 22.1311C15.8706 22.9891 16.0438 23.6574 16.3903 24.1359C16.7533 24.6144 17.3556 24.8536 18.1971 24.8536ZM18.1971 17.0079C18.8736 17.0079 19.3768 16.8016 19.7068 16.3891C20.0368 15.9766 20.2018 15.4486 20.2018 14.8051C20.2018 14.1286 20.0368 13.5924 19.7068 13.1964C19.3768 12.7839 18.8736 12.5776 18.1971 12.5776C17.5206 12.5776 17.0173 12.7839 16.6873 13.1964C16.3573 13.5924 16.1923 14.1286 16.1923 14.8051C16.1923 15.4486 16.3573 15.9766 16.6873 16.3891C17.0173 16.8016 17.5206 17.0079 18.1971 17.0079ZM21.4393 17.9484C21.8023 18.1134 22.1323 18.3444 22.4293 18.6414C22.7428 18.9219 23.0068 19.2436 23.2213 19.6066C23.4358 19.9696 23.6008 20.3656 23.7163 20.7946C23.8318 21.2236 23.8896 21.6691 23.8896 22.1311C23.8896 22.9066 23.7741 23.6244 23.5431 24.2844C23.3121 24.9444 22.9573 25.5136 22.4788 25.9921C22.0168 26.4706 21.4311 26.8419 20.7216 27.1059C20.0121 27.3699 19.1788 27.5019 18.2218 27.5019C17.2813 27.5019 16.4481 27.3616 15.7221 27.0811C15.0126 26.8171 14.4186 26.4541 13.9401 25.9921C13.4616 25.5136 13.0986 24.9609 12.8511 24.3339C12.6201 23.6904 12.5046 23.0056 12.5046 22.2796C12.5046 21.3226 12.7191 20.4894 13.1481 19.7799C13.5771 19.0704 14.2206 18.5094 15.0786 18.0969C14.4021 17.7504 13.9236 17.2389 13.6431 16.5624C13.3626 15.8694 13.2223 15.1764 13.2223 14.4834C13.2223 13.8399 13.3461 13.2459 13.5936 12.7014C13.8411 12.1404 14.1876 11.6619 14.6331 11.2659C15.0786 10.8534 15.6066 10.5316 16.2171 10.3006C16.8276 10.0696 17.4958 9.95412 18.2218 9.95412C19.0303 9.95412 19.7398 10.0696 20.3503 10.3006C20.9773 10.5316 21.4971 10.8451 21.9096 11.2411C22.3221 11.6371 22.6273 12.1074 22.8253 12.6519C23.0398 13.1799 23.1471 13.7574 23.1471 14.3844C23.1471 15.1104 23.0151 15.8034 22.7511 16.4634C22.5036 17.1234 22.0663 17.6184 21.4393 17.9484ZM25.6027 26.9326C25.7017 25.7446 25.8915 24.5566 26.172 23.3686C26.4525 22.1806 26.832 21.0091 27.3105 19.8541C27.8055 18.6991 28.383 17.5771 29.043 16.4881C29.7195 15.3826 30.495 14.3349 31.3695 13.3449H23.3505V10.4986H34.8592V12.9736C33.0112 15.0361 31.5922 17.2636 30.6022 19.6561C29.6122 22.0321 29.0512 24.4576 28.9192 26.9326H25.6027Z" fill="#212126"/>
<path class="icon" d="M18.0084 0.0639159C18.1585 0.143708 18.3065 0.2277 18.4525 0.314824C18.5341 0.359601 18.6156 0.404378 18.6996 0.450512C18.9869 0.60967 19.2707 0.774356 19.555 0.938964C19.7962 1.07488 20.0375 1.21051 20.279 1.34591C20.7677 1.62099 21.2552 1.89799 21.7413 2.17761C21.9049 2.27109 21.9049 2.27109 22.0717 2.36646C22.2577 2.4748 22.4422 2.58583 22.624 2.70104C23.0754 2.98372 23.3473 3.09013 23.8731 2.98861C24.4196 2.88783 24.4196 2.88783 24.8225 3.15813C24.8455 3.60505 24.8455 3.60505 24.8225 4.02114C24.9185 4.05928 25.0145 4.09742 25.1134 4.13672C25.435 4.26771 25.435 4.26771 25.68 4.391C25.6396 4.51305 25.5992 4.63511 25.5575 4.76086C25.3149 4.84223 25.0724 4.9236 24.8225 5.00743C24.8225 6.22798 24.8225 7.44852 24.8225 8.70604C25.0246 8.70604 25.2268 8.70604 25.435 8.70604C25.435 9.15357 25.435 9.60111 25.435 10.0622C25.3264 9.99609 25.2177 9.92997 25.1058 9.86186C24.7169 9.65049 24.7169 9.65049 24.3631 9.7848C24.2722 9.83566 24.1812 9.88652 24.0875 9.93891C23.9662 9.99994 23.9662 9.99994 23.8425 10.0622C23.8425 9.61467 23.8425 9.16714 23.8425 8.70604C24.0042 8.70604 24.1659 8.70604 24.3325 8.70604C24.2719 7.11934 24.2719 7.11934 24.21 5.50058C23.8057 5.70401 23.4015 5.90743 22.985 6.11702C22.9042 6.11702 22.8233 6.11702 22.74 6.11702C22.7376 5.94609 22.7376 5.94609 22.7352 5.77172C22.6554 5.33839 22.6554 5.33839 22.2242 5.15625C22.0553 5.09558 21.8851 5.03844 21.7141 4.98432C21.6247 4.95377 21.5353 4.92323 21.4433 4.89176C21.1822 4.80383 20.9201 4.72043 20.6575 4.63757C20.537 4.59657 20.4165 4.55557 20.2924 4.51332C17.9376 3.77475 15.5751 4.24357 13.3984 5.28676C13.185 5.3773 13.185 5.3773 12.94 5.3773C12.94 5.54003 12.94 5.70277 12.94 5.87044C12.288 5.66871 11.677 5.39717 11.0566 5.11531C10.9547 5.06938 10.8529 5.02345 10.7479 4.97613C10.4985 4.86359 10.2492 4.75073 10 4.63757C10.1546 4.1708 10.2918 4.13413 10.7106 3.89641C10.8364 3.82423 10.9622 3.75204 11.0918 3.67768C11.2293 3.60031 11.3667 3.52294 11.5083 3.44323C11.6506 3.36206 11.7928 3.28078 11.935 3.1994C12.2358 3.02745 12.5369 2.85611 12.8382 2.68521C13.3106 2.41706 13.7815 2.14643 14.2521 1.87517C14.3675 1.80864 14.3675 1.80864 14.4853 1.74076C14.6381 1.65267 14.791 1.56458 14.9438 1.47649C15.4284 1.19733 15.9131 0.918349 16.3998 0.643058C16.7289 0.456569 16.7289 0.456569 16.9952 0.267598C17.3914 -0.00324944 17.5357 -0.0632852 18.0084 0.0639159ZM24.21 4.26771C24.0887 4.32874 24.0887 4.32874 23.965 4.391C24.0054 4.55374 24.0458 4.71648 24.0875 4.88415C24.2492 4.80278 24.4109 4.72141 24.5775 4.63757C24.4562 4.51552 24.335 4.39347 24.21 4.26771Z" fill="#212126"/>
<path class="icon" d="M22.3736 5.50057C22.3736 6.35495 22.3736 7.20933 22.3736 8.08959C21.6846 7.93549 21.0157 7.7747 20.337 7.58874C18.2832 7.05861 16.4688 7.28246 14.4613 7.85506C14.0436 7.96631 14.0436 7.96631 13.3086 8.08959C13.3086 7.23522 13.3086 6.38084 13.3086 5.50057C16.4795 4.07871 19.2205 3.91389 22.3736 5.50057Z" fill="#212126"/>
</svg>
