<svg width="21" height="21" viewBox="0 0 21 21" fill="none" xmlns="http://www.w3.org/2000/svg">
<path class="upload-icon" d="M11.0503 3.83325H7.55029C6.15016 3.83325 5.45009 3.83325 4.91532 4.10574C4.44491 4.34542 4.06246 4.72787 3.82278 5.19828C3.55029 5.73305 3.55029 6.43312 3.55029 7.83325V13.1666C3.55029 14.5668 3.55029 15.2668 3.82278 15.8016C4.06246 16.272 4.44491 16.6544 4.91532 16.8941C5.45009 17.1666 6.15016 17.1666 7.55029 17.1666H12.8836C14.2838 17.1666 14.9838 17.1666 15.5186 16.8941C15.989 16.6544 16.3715 16.272 16.6111 15.8016C16.8836 15.2668 16.8836 14.5668 16.8836 13.1666V9.66658" stroke="currentColor" stroke-width="0.993217" stroke-linecap="round" stroke-linejoin="round"/>
<path class="upload-icon" d="M3.55029 13.8333L7.1277 10.2558C7.45314 9.93043 7.98078 9.93043 8.30622 10.2558L11.0503 12.9999M11.0503 12.9999L13.3777 10.6725C13.7031 10.3471 14.2308 10.3471 14.5562 10.6725L16.8836 12.9999M11.0503 12.9999L12.9253 14.8749L11.0503 12.9999Z" fill="currentColor"/>
<path class="upload-icon" d="M3.55029 13.8333L7.1277 10.2558C7.45314 9.93043 7.98078 9.93043 8.30622 10.2558L11.0503 12.9999M11.0503 12.9999L13.3777 10.6725C13.7031 10.3471 14.2308 10.3471 14.5562 10.6725L16.8836 12.9999M11.0503 12.9999L12.9253 14.8749" stroke="currentColor" stroke-width="0.993217" stroke-linecap="round" stroke-linejoin="round"/>
<path class="upload-icon" d="M15.217 7.16657V2.99991M15.217 2.99991L13.5503 4.66657M15.217 2.99991L16.8836 4.66657" stroke="currentColor" stroke-width="0.993217" stroke-linecap="round" stroke-linejoin="round"/>
</svg>
