<svg width="30" height="30" viewBox="0 0 30 30" fill="none" xmlns="http://www.w3.org/2000/svg">
<path d="M24.6579 11.9026L19.4045 6.60846M24.6579 11.9026L18.0932 18.5181C17.2281 19.3899 16.178 20.0781 14.9725 20.2877C13.7553 20.4993 12.2448 20.5697 11.5244 19.8438C10.8041 19.1178 10.8739 17.5955 11.0839 16.3688C11.2918 15.154 11.9748 14.0958 12.8398 13.224L19.4045 6.60846M24.6579 11.9026C24.6579 11.9026 28.5978 7.93199 25.9711 5.28493C23.3444 2.63787 19.4045 6.60846 19.4045 6.60846M26.7008 15.625C26.7008 24.2279 24.0741 26.875 15.5374 26.875C7.0007 26.875 4.37402 24.2279 4.37402 15.625C4.37402 7.02206 7.0007 4.375 15.5374 4.375" stroke="#212126" stroke-linecap="round" stroke-linejoin="round"/>
</svg>
