<?xml version="1.0" standalone="no"?>
<!DOCTYPE svg PUBLIC "-//W3C//DTD SVG 20010904//EN"
 "http://www.w3.org/TR/2001/REC-SVG-20010904/DTD/svg10.dtd">
<svg version="1.0" xmlns="http://www.w3.org/2000/svg"
 width="576.000000pt" height="576.000000pt" viewBox="0 0 576.000000 576.000000"
 preserveAspectRatio="xMidYMid meet">
<metadata>
Created by potrace 1.14, written by Peter Selinger 2001-2017
</metadata>
<g transform="translate(0.000000,576.000000) scale(0.100000,-0.100000)"
fill="#000000" stroke="none">
<path d="M2765 5508 c-11 -7 -22 -15 -25 -18 -11 -12 -334 -201 -380 -223 -8
-4 -31 -17 -50 -28 -135 -82 -431 -249 -440 -249 -5 0 -10 -4 -10 -10 0 -5 -4
-10 -8 -10 -17 0 -185 -99 -212 -125 -53 -51 -48 -63 43 -105 185 -85 312
-138 345 -145 12 -2 27 -7 32 -10 6 -4 10 10 10 34 0 35 3 41 21 41 12 0 60
18 108 39 106 48 258 99 341 116 8 2 26 6 40 9 167 39 368 40 567 2 67 -13
434 -139 457 -157 19 -15 26 -33 31 -74 6 -43 11 -55 25 -55 9 0 60 22 113 50
54 27 97 46 98 42 1 -4 3 -45 5 -92 2 -47 6 -125 8 -175 9 -181 9 -225 3 -232
-4 -3 -20 -6 -37 -5 -16 0 -31 -2 -31 -6 -2 -9 -5 -212 -4 -212 1 0 28 13 60
30 32 17 66 30 74 30 9 0 40 -13 69 -29 l52 -29 0 110 0 110 -27 -2 c-16 -1
-38 -2 -50 -1 l-22 1 0 294 0 294 59 19 c32 10 61 25 63 33 3 8 8 22 11 31 6
13 -7 23 -59 45 -67 29 -76 40 -73 94 3 64 -2 79 -33 95 -29 15 -44 16 -174 3
-39 -4 -87 14 -163 61 -42 26 -102 61 -132 78 -30 17 -87 49 -127 72 -91 51
-136 77 -193 109 -25 14 -96 54 -159 90 -120 69 -184 86 -226 60z m1164 -730
c-60 -37 -68 -39 -79 -18 -6 11 -8 20 -5 20 3 0 2 8 -4 18 -7 13 -5 20 12 29
18 9 26 7 51 -18 16 -16 28 -30 25 -31z"/>
<path d="M2718 4815 c-2 -2 -21 -6 -43 -9 -151 -23 -357 -82 -487 -140 l-58
-26 0 -206 0 -206 53 7 c43 6 119 24 207 49 40 12 150 36 185 41 22 4 51 8 65
11 53 9 168 17 245 16 138 0 238 -14 410 -57 33 -9 69 -17 80 -20 11 -2 56
-14 99 -25 44 -11 85 -20 93 -20 10 0 13 40 13 205 l0 205 -72 34 c-127 60
-313 117 -423 130 -12 1 -25 5 -30 8 -10 5 -331 8 -337 3z"/>
<path d="M2828 3924 c-2 -1 -23 -4 -48 -7 -245 -26 -484 -189 -588 -400 -58
-116 -76 -195 -75 -322 2 -248 105 -466 257 -547 36 -18 38 -21 20 -30 -62
-33 -156 -103 -201 -150 -77 -79 -153 -216 -170 -308 -2 -14 -8 -41 -12 -61
-16 -73 -4 -324 20 -386 5 -13 7 -23 4 -23 -11 0 60 -150 100 -210 112 -169
314 -294 545 -339 50 -9 201 -25 225 -23 6 0 55 3 110 6 171 9 351 65 472 147
59 39 193 175 193 195 0 8 4 14 8 14 10 0 56 91 78 153 58 165 73 425 32 547
-3 8 -13 40 -23 70 -32 100 -84 181 -174 271 -47 47 -104 94 -126 104 l-40 18
34 26 c107 82 172 184 204 321 52 216 34 405 -55 582 -67 133 -237 266 -399
312 -58 17 -64 18 -139 31 -43 8 -246 15 -252 9z m236 -448 c107 -53 167 -168
167 -320 -1 -158 -61 -275 -170 -328 -60 -30 -208 -35 -275 -10 -128 48 -195
166 -191 337 3 104 8 134 37 193 52 109 154 163 301 157 59 -2 90 -9 131 -29z
m-44 -1097 c106 -23 177 -79 223 -173 89 -184 48 -479 -81 -586 -65 -53 -133
-73 -252 -72 -191 0 -278 56 -340 217 -32 83 -35 310 -6 395 31 88 70 141 136
183 64 41 222 59 320 36z"/>
<path d="M205 3840 l-39 -5 -3 -100 c-1 -55 -5 -106 -8 -113 -3 -8 0 -10 7 -6
7 5 8 3 3 -6 -4 -7 -9 -50 -11 -94 -1 -45 -5 -171 -8 -281 -4 -110 -8 -243
-11 -295 -5 -126 -16 -436 -20 -580 l-3 -115 264 0 263 0 29 45 c79 124 197
182 356 176 94 -4 110 -7 163 -34 123 -63 186 -214 178 -432 -7 -230 -74 -363
-213 -428 -51 -24 -69 -27 -167 -27 -99 0 -116 3 -168 27 -72 34 -121 85 -159
165 -26 55 -33 81 -37 135 -1 15 -23 17 -258 15 l-258 -2 3 -45 c7 -126 70
-289 150 -390 108 -134 226 -215 407 -278 75 -26 130 -38 220 -47 81 -9 68 -9
170 -1 75 5 97 8 153 21 12 3 31 7 42 9 38 9 141 49 146 57 3 5 11 9 18 9 47
0 306 227 306 268 0 5 8 17 18 28 38 42 108 219 127 319 22 119 24 302 5 400
-6 33 -13 71 -16 85 -6 34 -41 126 -67 175 -45 88 -116 174 -200 242 -68 56
-219 121 -322 138 -93 15 -279 8 -364 -15 -20 -5 -47 -11 -61 -14 -58 -10
-206 -97 -218 -128 -2 -4 -7 -8 -12 -8 -5 0 -7 39 -5 88 6 134 17 480 19 545
0 31 5 58 11 58 5 1 262 3 570 4 308 1 565 3 570 4 11 1 15 414 4 425 -5 5
-35 7 -101 6 -15 -1 -76 -1 -120 -1 -7 0 -37 2 -66 3 -28 2 -52 0 -52 -3 0 -4
-15 -3 -34 1 -19 4 -39 4 -46 0 -7 -4 -27 -4 -46 0 -19 4 -34 4 -34 0 0 -4
-15 -5 -32 -1 -18 4 -47 4 -65 0 -18 -3 -35 -4 -37 -1 -5 4 -86 6 -103 2 -5
-2 -12 -2 -17 -1 -4 1 -27 2 -50 1 -57 -1 -65 -1 -116 1 -25 0 -49 0 -55 -1
-5 -1 -23 -1 -40 0 -79 5 -125 4 -125 -3 0 -5 -5 -5 -10 -2 -6 4 -31 6 -55 5
-59 -1 -62 -1 -123 2 -28 2 -52 0 -52 -3 0 -4 -15 -4 -32 0 -18 4 -46 4 -63 1
-16 -4 -37 -4 -45 0 -8 3 -33 3 -55 0z"/>
<path d="M3887 3844 c-3 -3 -39 -7 -79 -8 l-73 -1 0 -225 0 -225 638 0 c350 0
637 -2 637 -6 0 -3 -12 -19 -27 -37 -50 -56 -65 -74 -152 -191 -92 -122 -186
-266 -241 -366 -18 -33 -42 -75 -52 -94 -31 -55 -112 -215 -114 -226 -1 -5
-18 -44 -37 -85 -19 -41 -47 -109 -61 -150 -15 -41 -34 -91 -41 -110 -16 -40
-35 -103 -40 -128 -2 -9 -4 -17 -5 -17 -1 0 -3 -7 -5 -15 -2 -8 -13 -49 -24
-90 -23 -84 -48 -198 -67 -300 -4 -25 -8 -47 -9 -50 -1 -3 -5 -31 -9 -64 -4
-32 -9 -68 -11 -80 -2 -11 -6 -46 -9 -78 -3 -31 -7 -62 -8 -70 -2 -10 45 -13
256 -16 143 -1 263 1 267 5 4 5 10 44 13 88 3 44 8 91 10 105 3 14 7 52 11 85
3 33 8 69 11 80 2 11 6 31 8 45 10 61 39 191 57 260 11 41 22 84 24 94 3 11
23 76 46 145 151 452 380 857 699 1236 l76 90 0 194 c-1 186 -2 194 -21 198
-30 6 -104 4 -115 -2 -5 -3 -11 -2 -14 3 -3 4 -30 5 -61 2 -30 -3 -57 -4 -60
-2 -7 7 -105 8 -105 1 0 -4 -17 -3 -38 1 -20 3 -49 3 -64 -1 -15 -4 -29 -5
-32 -2 -7 8 -106 9 -106 2 0 -4 -17 -3 -38 1 -20 3 -49 3 -64 -1 -15 -4 -29
-5 -32 -2 -9 9 -106 9 -106 0 0 -5 -5 -5 -10 -2 -14 9 -285 10 -298 1 -6 -3
-13 -2 -16 3 -3 5 -21 5 -41 1 -19 -4 -37 -4 -40 0 -3 4 -21 4 -40 0 -19 -4
-37 -4 -40 0 -3 4 -21 4 -40 0 -19 -4 -37 -4 -40 0 -3 4 -21 4 -40 0 -19 -4
-37 -4 -40 0 -3 4 -20 4 -39 0 -19 -4 -40 -4 -46 0 -7 4 -25 4 -40 0 -15 -4
-34 -4 -42 1 -8 5 -18 6 -21 3z"/>
</g>
</svg>
